<svg version="1" xmlns="http://www.w3.org/2000/svg" width="346.667" height="346.667" viewBox="0 0 260.000000 260.000000"><path d="M14.5.7c-3.4.9-8.6 5-11.3 9L.5 13.5v233l2.7 3.8c1.4 2.2 4.3 5.1 6.5 6.5l3.8 2.7h233l3.8-2.7c2.2-1.4 5.1-4.3 6.5-6.5l2.7-3.8v-233l-2.7-3.8c-1.4-2.2-4.3-5.1-6.5-6.5L246.5.5l-115-.1C68.3.3 15.6.4 14.5.7zm87.7 76l.3 27.7 23-27.6 23-27.7h29.8c23.6-.1 29.7.2 29 1.1-.4.7-12.8 15.3-27.6 32.5-23.7 27.6-26.7 31.4-25.7 33.2 1.1 2.1 54.1 88.8 56.8 92.9l1.4 2.2-31.3-.2-31.3-.3-15.8-27c-8.7-14.9-16.2-27-16.6-27-.5 0-4.1 3.7-8 8.1l-7.2 8.2V211H50V49h52l.2 27.7z"/></svg>