<?xml version="1.0" standalone="no"?>
<!DOCTYPE svg PUBLIC "-//W3C//DTD SVG 20010904//EN"
 "http://www.w3.org/TR/2001/REC-SVG-20010904/DTD/svg10.dtd">
<svg version="1.0" xmlns="http://www.w3.org/2000/svg"
 width="1024.000000pt" height="1024.000000pt" viewBox="0 0 1024.000000 1024.000000"
 preserveAspectRatio="xMidYMid meet">
<metadata>
Created by potrace 1.11, written by Peter Selinger 2001-2013
</metadata>
<g transform="translate(0.000000,1024.000000) scale(0.100000,-0.100000)"
fill="#000000" stroke="none">
<path d="M6287 8758 c2 -5 -2 -8 -9 -9 -7 0 -22 -3 -33 -6 -11 -2 -32 -5 -47
-6 -14 -1 -24 -5 -22 -8 2 -4 -13 -10 -34 -14 -20 -4 -75 -18 -122 -31 -46
-14 -90 -22 -98 -19 -7 2 -10 0 -7 -5 3 -6 -5 -11 -19 -11 -47 -3 -51 -4 -56
-11 -3 -4 -17 -8 -30 -10 -14 -2 -29 -6 -35 -10 -9 -5 -132 -37 -160 -42 -5
-1 -16 -5 -22 -9 -7 -5 -13 -6 -13 -4 0 3 -21 -1 -46 -9 -26 -7 -50 -12 -54
-9 -5 3 -10 1 -12 -4 -1 -6 -14 -11 -28 -13 -14 -2 -31 -7 -37 -11 -8 -5 -13
-3 -13 5 -1 9 -4 8 -10 -3 -5 -9 -20 -16 -32 -15 -13 1 -25 -2 -28 -6 -3 -4
-21 -9 -40 -10 -19 -2 -37 -6 -40 -10 -6 -7 -52 -19 -82 -21 -10 -1 -18 -4
-18 -7 0 -4 -6 -7 -12 -7 -7 0 -33 -6 -58 -13 -25 -7 -45 -11 -45 -9 0 1 -11
-3 -24 -10 -17 -10 -21 -10 -16 -1 4 7 -2 6 -16 -3 -13 -8 -40 -19 -59 -23
-19 -4 -39 -9 -45 -10 -5 -2 -22 -6 -37 -9 -15 -3 -38 -9 -50 -14 -13 -4 -33
-7 -46 -5 -13 2 -21 0 -18 -5 11 -17 -37 -20 -51 -3 -8 9 -11 11 -7 3 9 -18
-17 -33 -34 -19 -10 9 -12 8 -10 -2 2 -8 -5 -14 -17 -14 -11 0 -22 -3 -25 -7
-4 -6 -30 -10 -158 -24 -23 -3 -31 -1 -27 8 4 7 1 5 -7 -3 -7 -8 -29 -15 -48
-15 -19 0 -39 -2 -45 -5 -10 -5 -49 -9 -117 -13 -21 -1 -38 -4 -38 -7 0 -3
-15 -7 -34 -8 -73 -5 -116 -11 -126 -17 -6 -4 -18 -1 -27 7 -12 9 -15 9 -9 1
5 -9 -2 -13 -23 -13 -17 0 -32 0 -33 0 -2 -1 -20 -5 -40 -9 -25 -6 -36 -5 -32
1 4 6 -2 6 -14 -1 -11 -6 -48 -12 -83 -13 -35 -2 -66 -6 -69 -9 -3 -4 -39 -10
-79 -13 -41 -4 -79 -9 -83 -12 -4 -3 -8 1 -8 8 0 9 -2 10 -8 2 -9 -14 -216
-39 -233 -28 -8 5 -9 3 -4 -6 5 -8 3 -11 -6 -8 -8 3 -24 1 -37 -3 -16 -6 -21
-6 -16 2 4 8 1 8 -12 1 -11 -5 -48 -13 -83 -16 -36 -4 -68 -9 -73 -12 -4 -3
-8 1 -8 8 0 9 -3 10 -8 2 -6 -11 -43 -17 -162 -29 -25 -3 -61 -7 -80 -10 -71
-10 -135 -18 -152 -19 -10 0 -18 -4 -18 -8 0 -4 -9 -8 -19 -8 -11 0 -21 -4
-23 -9 -1 -5 -9 -11 -17 -13 -21 -5 -89 -78 -106 -115 -9 -18 -19 -31 -23 -29
-4 2 -8 -5 -8 -17 -1 -91 -5 -121 -14 -107 -6 9 -10 10 -10 3 0 -6 5 -15 10
-18 15 -9 12 -28 -4 -22 -7 3 -19 0 -25 -6 -6 -6 -11 -7 -11 -3 0 5 -6 4 -12
-1 -19 -14 -50 -24 -43 -14 3 5 -16 -1 -42 -14 -25 -13 -51 -21 -56 -18 -6 3
-7 1 -3 -5 7 -11 -7 -17 -29 -12 -5 1 -7 -2 -3 -6 4 -3 -11 -27 -32 -52 -22
-25 -40 -51 -40 -58 0 -8 -4 -14 -10 -14 -5 0 -6 -7 -3 -17 4 -9 2 -14 -3 -10
-5 3 -10 -2 -10 -11 -1 -9 -2 -42 -3 -72 -2 -30 -2 -58 -1 -62 2 -5 4 -12 5
-18 1 -5 3 -11 5 -12 2 -3 10 -34 14 -58 2 -8 6 -23 10 -32 4 -9 5 -22 1 -28
-3 -5 -2 -10 3 -10 13 0 55 -176 46 -191 -4 -7 -3 -9 3 -6 6 4 14 0 17 -9 4
-10 2 -13 -7 -8 -8 5 -8 2 2 -9 7 -9 11 -24 7 -32 -3 -9 -2 -13 4 -10 6 3 10
-3 10 -14 0 -31 1 -35 11 -47 5 -7 11 -27 13 -45 2 -19 8 -45 15 -59 17 -39
63 -218 65 -255 0 -11 5 -23 9 -26 5 -3 9 -22 10 -41 1 -20 5 -34 9 -31 7 4
12 -21 11 -54 -1 -7 2 -13 6 -13 4 0 8 -6 8 -12 0 -7 8 -38 17 -68 9 -30 17
-57 17 -60 1 -3 4 -11 6 -18 3 -7 3 -21 0 -32 -3 -11 -1 -18 4 -14 5 3 9 2 9
-1 0 -4 12 -50 26 -103 14 -54 27 -106 28 -117 0 -11 4 -22 8 -25 4 -4 9 -22
10 -42 2 -20 7 -34 12 -31 5 3 7 -6 4 -21 -3 -14 -2 -26 2 -26 4 0 11 -17 16
-37 9 -44 11 -52 13 -55 5 -6 14 -54 15 -75 1 -11 4 -19 7 -17 4 2 10 -13 15
-34 4 -20 9 -46 12 -57 3 -11 5 -30 6 -42 1 -11 4 -19 9 -16 6 4 11 -29 10
-65 -1 -7 2 -11 5 -7 7 6 33 -87 36 -125 0 -14 5 -28 10 -32 5 -3 10 -17 11
-30 1 -12 5 -31 10 -40 4 -10 4 -25 1 -34 -3 -8 -2 -13 3 -10 5 3 12 -6 16
-21 4 -17 2 -29 -7 -34 -10 -7 -8 -9 5 -9 10 0 17 -6 16 -12 -1 -7 0 -20 4
-28 6 -16 20 -69 22 -85 1 -5 5 -17 8 -25 9 -21 29 -101 33 -125 1 -11 3 -20
4 -20 3 0 12 -41 13 -62 0 -13 5 -23 9 -23 4 0 8 -5 8 -11 0 -5 -5 -7 -11 -3
-8 4 -8 0 0 -15 7 -11 9 -21 6 -21 -3 0 -1 -9 5 -20 8 -15 8 -20 -2 -20 -10 0
-10 -2 1 -9 8 -5 12 -19 9 -35 -3 -15 -1 -26 6 -26 6 0 2 -8 -9 -17 -16 -12
-17 -14 -3 -10 14 5 17 1 17 -16 -1 -12 2 -30 6 -40 5 -11 3 -17 -6 -17 -11 0
-11 -2 -1 -8 7 -5 13 -35 15 -74 1 -36 5 -64 9 -62 4 3 6 -4 6 -13 -1 -27 12
-135 18 -156 3 -10 0 -25 -7 -33 -10 -12 -9 -13 7 -7 17 6 17 5 5 -10 -7 -9
-9 -17 -4 -17 5 0 10 -15 11 -32 1 -18 6 -60 11 -94 4 -33 8 -72 7 -85 -1 -13
2 -26 6 -29 4 -3 9 -42 12 -87 2 -45 6 -85 9 -90 3 -5 8 -36 11 -69 3 -32 6
-59 6 -59 2 0 6 -33 15 -115 4 -30 8 -58 11 -61 2 -4 0 -10 -6 -14 -5 -3 -10
-12 -10 -18 0 -7 4 -6 10 3 8 12 10 10 11 -10 2 -51 13 -143 25 -225 2 -16 6
-48 9 -70 3 -22 10 -74 15 -115 6 -41 12 -98 14 -126 1 -28 6 -56 11 -64 6 -9
4 -11 -4 -5 -9 5 -10 3 -2 -11 5 -11 17 -77 26 -149 8 -71 17 -140 20 -153 2
-13 -1 -22 -8 -22 -9 0 -9 -2 -1 -8 6 -4 14 -36 18 -72 4 -36 9 -74 11 -85 2
-11 7 -47 10 -80 4 -32 8 -62 10 -65 2 -4 5 -25 6 -48 2 -23 5 -42 9 -42 3 0
11 -14 19 -31 7 -17 22 -39 33 -49 11 -10 17 -23 14 -29 -4 -7 -1 -8 8 -5 9 3
16 2 16 -3 0 -6 12 -15 26 -21 14 -7 22 -17 19 -22 -3 -6 1 -7 9 -4 9 3 16 1
16 -6 0 -6 3 -9 8 -6 4 2 33 -1 63 -9 34 -7 62 -9 72 -4 10 6 18 5 22 -1 4 -6
12 -7 18 -3 19 14 70 17 63 4 -10 -16 0 -13 18 5 15 14 16 14 16 -3 0 -28 55
-117 91 -147 40 -34 98 -64 132 -68 15 -2 29 -6 32 -9 3 -3 33 -1 68 4 34 5
70 10 80 10 9 1 17 5 17 10 0 5 13 7 29 5 17 -2 28 -1 25 3 -4 7 34 19 76 24
8 1 28 7 44 14 16 6 36 11 45 9 9 -1 23 2 31 7 8 5 20 10 25 12 19 4 50 12
142 36 51 14 95 22 98 19 3 -4 9 -1 13 5 4 7 23 15 42 18 19 3 46 10 60 15 21
8 85 26 125 36 110 27 159 40 203 53 17 5 32 8 32 6 0 -2 15 2 34 10 36 15 88
28 123 29 11 1 19 4 17 7 -4 8 95 30 106 24 5 -3 10 -1 12 4 1 6 14 12 28 15
14 3 67 17 119 31 52 14 101 23 108 20 9 -3 11 0 7 7 -5 7 0 9 14 6 12 -3 23
-1 25 6 3 8 9 7 21 -3 14 -12 16 -12 9 4 -5 14 -3 17 10 12 9 -3 19 -2 23 4 3
6 12 8 20 5 8 -3 14 -1 14 3 0 5 13 8 29 7 17 -1 27 2 24 8 -4 5 1 7 10 3 10
-3 17 -2 17 2 0 5 8 8 18 7 9 -2 20 1 23 6 7 11 102 20 94 9 -3 -5 0 -13 6
-17 7 -4 9 -3 6 2 -3 6 -2 16 4 24 7 13 9 13 9 0 0 -11 2 -12 8 -3 4 7 31 14
59 17 28 2 55 6 59 8 5 3 28 4 51 4 24 -1 43 1 43 4 0 9 43 6 57 -3 9 -5 11
-3 7 6 -3 9 2 13 18 12 12 -1 40 2 63 6 22 4 67 10 100 14 112 12 138 16 146
20 4 3 10 1 14 -5 3 -5 12 -10 18 -10 7 0 6 4 -3 10 -11 7 -6 10 23 11 20 1
43 2 50 3 6 1 18 -3 26 -8 11 -8 13 -8 7 2 -4 7 -2 12 6 13 7 0 22 2 33 3 11
2 47 6 80 10 32 4 63 9 66 12 4 2 11 -1 15 -7 4 -7 9 -7 13 -1 3 5 32 12 64
16 32 3 63 9 69 12 7 5 8 2 3 -6 -6 -10 -4 -11 6 -4 18 11 32 13 96 17 29 1
53 4 53 8 0 3 10 5 23 6 46 1 118 11 124 17 3 3 15 1 26 -5 14 -8 18 -8 13 0
-5 7 6 11 31 12 21 0 45 2 54 4 40 8 139 18 181 19 25 1 44 4 41 9 -2 4 3 8
11 8 38 3 83 28 120 68 22 23 32 28 38 19 7 -10 8 -9 7 2 -3 28 1 41 11 35 6
-3 7 1 4 9 -3 9 -1 16 5 16 6 0 10 3 9 8 -5 17 14 52 25 45 8 -5 8 -2 0 9 -7
8 -10 18 -6 22 4 4 6 22 5 41 -2 30 1 37 25 46 15 6 35 12 44 14 85 17 156 54
187 97 7 10 18 16 23 12 5 -3 8 -2 7 3 -4 11 33 93 41 93 13 0 11 147 -2 190
-7 25 -13 55 -12 67 1 12 -2 20 -6 18 -7 -5 -18 36 -23 85 -1 14 -8 35 -14 47
-7 12 -13 35 -15 50 -2 16 -7 35 -11 42 -8 12 -15 46 -19 84 -1 9 -4 17 -7 17
-4 0 -7 6 -8 13 0 6 -6 30 -12 52 -15 56 -22 88 -23 103 0 6 -3 12 -7 12 -3 0
-7 8 -8 18 -2 21 -10 57 -12 57 -2 0 -7 19 -15 57 -3 15 -10 39 -15 53 -5 14
-9 29 -8 33 1 7 -4 23 -23 70 -6 15 -5 22 4 22 8 0 9 2 1 8 -13 8 -75 224 -63
216 4 -2 1 9 -7 25 -17 35 -25 65 -27 103 -1 14 -5 24 -9 21 -5 -2 -9 6 -10
19 -2 31 -3 40 -13 62 -4 10 -8 31 -9 47 -1 16 -4 29 -8 29 -8 0 -33 97 -32
127 0 12 -3 20 -7 17 -10 -6 -21 64 -13 78 4 7 3 8 -4 4 -8 -4 -12 1 -13 13
-2 29 -3 34 -11 47 -4 6 -9 25 -10 43 -1 17 -6 31 -10 31 -4 0 -7 10 -7 23 0
12 -6 41 -15 65 -9 24 -14 48 -11 53 4 5 1 9 -6 9 -7 0 -9 10 -7 25 3 14 1 25
-5 25 -6 0 -8 3 -5 6 4 3 0 17 -7 31 -7 14 -12 34 -10 44 2 11 1 19 -4 19 -7
0 -37 119 -33 133 1 4 -2 7 -6 7 -13 0 -12 44 1 53 8 6 7 7 -5 4 -13 -5 -18 3
-23 36 -4 23 -11 49 -15 57 -5 9 -10 29 -13 45 -2 17 -6 37 -10 45 -24 63 -29
93 -16 101 11 7 9 9 -6 10 -11 0 -14 3 -7 6 6 2 12 9 12 14 0 6 -4 7 -10 4
-11 -7 -15 11 -30 130 -15 117 -20 149 -25 154 -2 2 0 12 5 22 6 9 6 19 1 21
-9 3 -18 64 -25 168 -2 30 -9 74 -14 97 -7 32 -7 41 2 36 6 -4 5 1 -2 9 -8 9
-13 25 -12 35 1 10 1 20 0 23 -2 6 -5 24 -15 105 -12 92 -12 99 -1 114 8 11 8
13 0 8 -7 -4 -14 2 -17 13 -3 11 0 20 6 20 9 0 9 2 0 8 -7 4 -13 36 -15 75 -2
37 -6 67 -9 67 -3 0 -6 20 -8 44 -2 50 -8 86 -15 93 -3 3 -1 16 5 30 5 13 5
22 1 19 -5 -3 -9 9 -10 27 -1 18 -4 43 -7 57 -3 14 -8 50 -11 80 -3 30 -7 57
-10 59 -2 2 2 11 9 19 10 13 9 14 -1 8 -10 -6 -13 -3 -12 10 1 11 1 21 0 24
-5 15 -7 28 -26 215 -4 41 -9 76 -18 130 -3 17 -7 53 -10 80 -10 85 -17 139
-21 153 -3 8 0 10 7 6 7 -5 8 -3 3 6 -15 25 -23 80 -11 80 7 0 7 3 -2 8 -7 5
-13 36 -15 84 -1 42 -5 74 -9 71 -8 -4 -9 6 -12 109 0 27 -4 48 -7 48 -3 0 -6
14 -7 30 -2 67 -25 188 -45 235 -12 28 -38 66 -59 86 -20 20 -34 40 -30 44 4
5 2 5 -5 2 -12 -8 -70 20 -91 43 -7 8 -11 9 -7 3 4 -8 0 -13 -9 -13 -9 0 -16
4 -16 8 0 8 -19 8 -85 1 -17 -2 -36 1 -44 5 -9 6 -12 5 -8 -1 4 -7 -8 -12 -32
-15 -22 -2 -37 0 -35 4 3 5 1 8 -5 8 -5 0 -12 9 -16 20 -3 11 -25 43 -47 71
-30 39 -56 59 -105 81 -59 26 -74 29 -148 26 -46 -2 -81 -6 -78 -10z m183
-2563 c14 -8 37 -25 51 -39 60 -56 62 -64 159 -861 51 -415 90 -769 87 -793
-6 -59 -53 -131 -107 -164 -44 -27 -76 -31 -1395 -193 -742 -92 -1366 -166
-1386 -167 -38 0 -111 29 -145 59 -11 10 -32 41 -47 68 -25 47 -32 96 -117
795 -50 410 -90 759 -90 775 2 74 64 166 136 200 25 11 439 66 1397 184 1412
174 1389 172 1457 136z"/>
<path d="M5780 5693 l-115 -15 31 -252 c20 -153 28 -253 22 -257 -5 -3 -62
-12 -126 -19 -165 -18 -164 -17 -105 -69 26 -24 91 -83 143 -131 210 -192 305
-278 306 -277 11 12 373 561 371 563 -1 1 -67 -6 -147 -16 -80 -10 -145 -18
-146 -17 0 1 -13 108 -28 237 -15 129 -30 243 -32 253 -6 20 -15 20 -174 0z"/>
<path d="M4970 5593 c-63 -8 -115 -15 -116 -16 -1 -1 -57 -92 -124 -202 -68
-110 -124 -201 -126 -203 -1 -2 -78 72 -170 163 l-169 166 -60 -5 c-33 -3
-101 -10 -150 -16 l-91 -12 18 -147 c79 -648 105 -851 109 -854 2 -2 65 3 139
12 121 14 135 18 138 36 1 11 -13 142 -31 290 -19 149 -33 271 -32 273 1 2 78
-70 170 -160 92 -90 172 -163 178 -163 9 0 103 140 128 190 29 60 129 206 133
194 2 -8 19 -138 37 -289 18 -151 33 -276 33 -277 2 -3 276 34 281 38 2 3 -22
223 -55 490 -33 266 -60 490 -60 497 0 15 -28 14 -180 -5z"/>
<path d="M6689 8603 c-13 -16 -12 -17 4 -4 9 7 17 15 17 17 0 8 -8 3 -21 -13z"/>
<path d="M4353 8315 c0 -8 4 -12 9 -9 5 3 6 10 3 15 -9 13 -12 11 -12 -6z"/>
<path d="M7510 5486 c0 -2 7 -7 16 -10 8 -3 12 -2 9 4 -6 10 -25 14 -25 6z"/>
<path d="M2665 4840 c-3 -6 1 -7 9 -4 18 7 21 14 7 14 -6 0 -13 -4 -16 -10z"/>
<path d="M8030 3601 c0 -6 4 -13 10 -16 6 -3 7 1 4 9 -7 18 -14 21 -14 7z"/>
<path d="M2955 2801 c-3 -5 -2 -12 3 -15 5 -3 9 1 9 9 0 17 -3 19 -12 6z"/>
<path d="M8155 2711 c-3 -5 -2 -12 3 -15 5 -3 9 1 9 9 0 17 -3 19 -12 6z"/>
<path d="M6355 2040 c-3 -5 -1 -10 4 -10 6 0 11 5 11 10 0 6 -2 10 -4 10 -3 0
-8 -4 -11 -10z"/>
<path d="M6020 2000 c-9 -6 -10 -10 -3 -10 6 0 15 5 18 10 8 12 4 12 -15 0z"/>
</g>
</svg>
